<?xml version="1.0" encoding="UTF-8" standalone="no"?>
<svg
   xmlns:dc="http://purl.org/dc/elements/1.1/"
   xmlns:cc="http://creativecommons.org/ns#"
   xmlns:rdf="http://www.w3.org/1999/02/22-rdf-syntax-ns#"
   xmlns:svg="http://www.w3.org/2000/svg"
   xmlns="http://www.w3.org/2000/svg"
   xmlns:sodipodi="http://sodipodi.sourceforge.net/DTD/sodipodi-0.dtd"
   xmlns:inkscape="http://www.inkscape.org/namespaces/inkscape"
   version="1.1"
   id="svg2"
   xml:space="preserve"
   width="256"
   height="80.400002"
   viewBox="0 0 256 80.400002"
   sodipodi:docname="PSN logo (1).eps"><metadata
     id="metadata8"><rdf:RDF><cc:Work
         rdf:about=""><dc:format>image/svg+xml</dc:format><dc:type
           rdf:resource="http://purl.org/dc/dcmitype/StillImage" /></cc:Work></rdf:RDF></metadata><defs
     id="defs6" /><sodipodi:namedview
     pagecolor="#ffffff"
     bordercolor="#666666"
     borderopacity="1"
     objecttolerance="10"
     gridtolerance="10"
     guidetolerance="10"
     inkscape:pageopacity="0"
     inkscape:pageshadow="2"
     inkscape:window-width="640"
     inkscape:window-height="480"
     id="namedview4" /><g
     id="g10"
     inkscape:groupmode="layer"
     inkscape:label="ink_ext_XXXXXX"
     transform="matrix(1.3333333,0,0,-1.3333333,0,80.4)"><g
       id="g12"
       transform="scale(0.1)"><path
         d="m 312.738,191.32 c 0,-29.914 -9.648,-57.578 -26.004,-80.05 C 261.98,77.2656 221.863,55.168 176.578,55.168 c -75.191,0 -136.1561,60.957 -136.1561,136.152 0,45.282 22.1054,85.403 56.1133,110.157 22.4688,16.359 50.1288,26.003 80.0428,26.003 29.918,0 57.578,-9.644 80.051,-26.003 -22.473,-16.36 -50.133,-26.004 -80.051,-26.004 -46.473,0 -84.1483,-37.676 -84.1483,-84.153 0,-46.472 37.6753,-84.148 84.1483,-84.148 46.477,0 84.156,37.676 84.156,84.148 0,29.922 9.649,57.578 26,80.047 16.356,-22.469 26.004,-50.125 26.004,-80.047"
         style="fill:#0095d7;fill-opacity:1;fill-rule:nonzero;stroke:none"
         id="path14" /><path
         d="m 753.363,191.32 c 0,-29.914 -9.648,-57.578 -26.008,-80.05 -24.75,-34.0044 -64.871,-56.102 -110.156,-56.102 -45.277,0 -85.398,22.0976 -110.148,56.102 -16.36,22.472 -26.008,50.136 -26.008,80.05 0,29.922 9.648,57.578 26.008,80.047 16.351,-22.469 26,-50.125 26,-80.047 0,-46.472 37.676,-84.148 84.148,-84.148 46.481,0 84.156,37.676 84.156,84.148 0,29.922 9.649,57.578 26,80.047 16.36,-22.469 26.008,-50.125 26.008,-80.047"
         style="fill:#0095d7;fill-opacity:1;fill-rule:nonzero;stroke:none"
         id="path16" /><path
         d="m 697.25,301.477 c -22.469,-16.36 -50.133,-26.004 -80.051,-26.004 -29.91,0 -57.578,9.644 -80.043,26.004 22.465,16.359 50.133,26.003 80.043,26.003 29.918,0 57.582,-9.644 80.051,-26.003"
         style="fill:#0095d7;fill-opacity:1;fill-rule:nonzero;stroke:none"
         id="path18" /><path
         d="m 476.938,301.477 c -22.465,-16.36 -50.129,-26.004 -80.043,-26.004 -29.918,0 -57.579,9.644 -80.047,26.004 22.468,16.359 50.129,26.003 80.047,26.003 29.914,0 57.578,-9.644 80.043,-26.003"
         style="fill:#0095d7;fill-opacity:1;fill-rule:nonzero;stroke:none"
         id="path20" /><path
         d="m 533.051,411.633 c 0,-29.918 -9.649,-57.578 -26,-80.043 -16.36,22.465 -26.008,50.125 -26.008,80.043 0,46.472 -37.676,84.148 -84.148,84.148 -46.477,0 -84.157,-37.676 -84.157,-84.148 0,-29.918 -9.648,-57.578 -26.004,-80.043 -16.351,22.465 -26,50.125 -26,80.043 0,29.918 9.649,57.578 26,80.043 24.758,34.008 64.875,56.113 110.161,56.113 45.281,0 85.398,-22.105 110.156,-56.113 16.351,-22.465 26,-50.125 26,-80.043"
         style="fill:#0095d7;fill-opacity:1;fill-rule:nonzero;stroke:none"
         id="path22" /><path
         d="m 973.676,411.633 c 0,-45.285 -22.106,-85.403 -56.113,-110.156 -22.465,-16.36 -50.133,-26.004 -80.043,-26.004 -29.918,0 -57.586,9.644 -80.051,26.004 22.465,16.359 50.133,26.003 80.051,26.003 46.468,0 84.148,37.672 84.148,84.153 0,46.472 -37.68,84.148 -84.148,84.148 -46.481,0 -84.157,-37.676 -84.157,-84.148 0,-29.918 -9.648,-57.578 -26.008,-80.043 -16.351,22.465 -26,50.125 -26,80.043 0,29.918 9.649,57.578 26,80.043 24.758,34.008 64.875,56.113 110.165,56.113 75.195,0 136.156,-60.961 136.156,-136.156"
         style="fill:#0095d7;fill-opacity:1;fill-rule:nonzero;stroke:none"
         id="path24" /><path
         d="m 1108.13,463.234 c 13.4,0 21.75,7.489 21.75,17.996 v 0.293 c 0,11.809 -8.5,18.008 -21.75,18.008 h -20.6 v -36.297 z m -38.32,52.43 h 39.76 c 23.62,0 38.31,-13.398 38.31,-33.711 v -0.281 c 0,-22.617 -18.15,-34.434 -40.33,-34.434 h -20.02 v -32.402 h -17.72 v 100.828"
         style="fill:#333333;fill-opacity:1;fill-rule:nonzero;stroke:none"
         id="path26" /><path
         d="m 1170.66,457.609 v 58.055 h 17.72 v -57.332 c 0,-18.723 9.65,-28.66 25.49,-28.66 15.7,0 25.35,9.363 25.35,27.937 v 58.055 h 17.72 v -57.187 c 0,-30.106 -17,-45.235 -43.35,-45.235 -26.22,0 -42.93,15.129 -42.93,44.367"
         style="fill:#333333;fill-opacity:1;fill-rule:nonzero;stroke:none"
         id="path28" /><path
         d="m 1331.27,458.184 h -28.08 v -27.657 h 29.38 c 12.1,0 19.44,4.758 19.44,13.828 v 0.293 c 0,8.497 -6.76,13.536 -20.74,13.536 z m 15.13,28.957 c 0,7.918 -6.34,12.824 -17.72,12.824 h -25.49 v -26.797 h 24.2 c 11.38,0 19.01,4.469 19.01,13.687 z m -60.64,28.523 h 45.23 c 11.52,0 20.6,-3.172 26.36,-8.934 4.47,-4.464 6.77,-9.941 6.77,-16.71 v -0.282 c 0,-12.101 -6.91,-18.586 -14.41,-22.472 11.82,-4.032 20.03,-10.809 20.03,-24.493 v -0.281 c 0,-18.008 -14.83,-27.656 -37.32,-27.656 h -46.66 v 100.828"
         style="fill:#333333;fill-opacity:1;fill-rule:nonzero;stroke:none"
         id="path30" /><path
         d="m 1394.24,515.664 h 17.72 v -84.695 h 53 v -16.133 h -70.72 v 100.828"
         style="fill:#333333;fill-opacity:1;fill-rule:nonzero;stroke:none"
         id="path32" /><path
         d="m 1490.34,515.664 h 17.71 V 414.836 h -17.71 v 100.828"
         style="fill:#333333;fill-opacity:1;fill-rule:nonzero;stroke:none"
         id="path34" /><path
         d="m 1534.98,464.965 v 0.281 c 0,28.66 21.47,52.149 52.01,52.149 18.58,0 29.81,-6.485 39.46,-15.704 l -11.38,-13.105 c -8.06,7.488 -16.71,12.527 -28.23,12.527 -19.16,0 -33.27,-15.847 -33.27,-35.574 v -0.293 c 0,-19.734 13.97,-35.723 33.27,-35.723 12.39,0 20.31,4.903 28.95,12.969 l 11.38,-11.523 c -10.51,-10.949 -22.03,-17.864 -40.91,-17.864 -29.38,0 -51.28,22.903 -51.28,51.86"
         style="fill:#333333;fill-opacity:1;fill-rule:nonzero;stroke:none"
         id="path36" /><path
         d="m 1063.04,265.742 10.66,12.68 c 9.65,-8.352 19.45,-13.109 31.83,-13.109 10.96,0 17.87,5.187 17.87,12.675 v 0.293 c 0,7.199 -4.04,11.098 -22.76,15.41 -21.47,5.188 -33.57,11.528 -33.57,30.11 v 0.285 c 0,17.281 14.41,29.246 34.44,29.246 14.68,0 26.35,-4.473 36.58,-12.676 l -9.51,-13.398 c -9.07,6.765 -18.15,10.371 -27.37,10.371 -10.37,0 -16.42,-5.332 -16.42,-11.953 v -0.293 c 0,-7.774 4.61,-11.231 24.06,-15.84 21.32,-5.188 32.27,-12.824 32.27,-29.531 v -0.293 c 0,-18.867 -14.85,-30.11 -36.02,-30.11 -15.41,0 -29.96,5.332 -42.06,16.133"
         style="fill:#333333;fill-opacity:1;fill-rule:nonzero;stroke:none"
         id="path38" /><path
         d="m 1167.48,351.887 h 74.77 v -15.84 h -57.04 v -26.223 h 50.55 v -15.84 h -50.55 v -27.089 h 57.76 v -15.84 h -75.49 v 100.832"
         style="fill:#333333;fill-opacity:1;fill-rule:nonzero;stroke:none"
         id="path40" /><path
         d="m 1264.44,301.184 v 0.293 c 0,28.66 21.46,52.136 52,52.136 18.58,0 29.81,-6.48 39.46,-15.703 l -11.38,-13.105 c -8.06,7.492 -16.7,12.531 -28.23,12.531 -19.16,0 -33.27,-15.84 -33.27,-35.574 v -0.285 c 0,-19.739 13.98,-35.735 33.27,-35.735 12.39,0 20.31,4.903 28.96,12.973 l 11.37,-11.527 c -10.5,-10.946 -22.03,-17.86 -40.9,-17.86 -29.39,0 -51.28,22.899 -51.28,51.856"
         style="fill:#333333;fill-opacity:1;fill-rule:nonzero;stroke:none"
         id="path42" /><path
         d="m 1406.78,335.469 h -31.98 v 16.418 h 81.81 v -16.418 h -31.98 v -84.414 h -17.85 v 84.414"
         style="fill:#333333;fill-opacity:1;fill-rule:nonzero;stroke:none"
         id="path44" /><path
         d="m 1557.6,301.184 v 0.293 c 0,19.589 -14.27,35.859 -34.29,35.859 -20.02,0 -33.99,-15.988 -33.99,-35.574 v -0.285 c 0,-19.598 14.26,-35.735 34.28,-35.735 20.03,0 34,15.852 34,35.442 z m -86.86,0 v 0.293 c 0,28.367 21.89,52.136 52.86,52.136 30.97,0 52.57,-23.476 52.57,-51.851 v -0.285 c 0,-28.379 -21.89,-52.149 -52.86,-52.149 -30.96,0 -52.57,23.477 -52.57,51.856"
         style="fill:#333333;fill-opacity:1;fill-rule:nonzero;stroke:none"
         id="path46" /><path
         d="m 1643.32,301.906 c 12.68,0 20.75,6.621 20.75,16.856 v 0.285 c 0,10.797 -7.79,16.707 -20.89,16.707 h -25.78 v -33.848 z m -43.65,49.981 h 44.94 c 12.68,0 22.62,-3.742 29.1,-10.078 5.34,-5.481 8.36,-12.969 8.36,-21.758 v -0.285 c 0,-16.563 -9.94,-26.504 -23.91,-30.536 l 27.22,-38.175 h -21.03 l -24.78,35.148 h -22.17 v -35.148 h -17.73 v 100.832"
         style="fill:#333333;fill-opacity:1;fill-rule:nonzero;stroke:none"
         id="path48" /><path
         d="m 1069.81,188.117 h 16.42 l 54.02,-69.719 v 69.719 h 17.43 V 87.2852 h -14.84 l -55.6,71.7378 V 87.2852 h -17.43 V 188.117"
         style="fill:#333333;fill-opacity:1;fill-rule:nonzero;stroke:none"
         id="path50" /><path
         d="m 1185.49,188.117 h 74.77 v -15.851 h -57.04 v -26.211 h 50.55 v -15.836 h -50.55 v -27.09 h 57.76 V 87.2852 h -75.49 V 188.117"
         style="fill:#333333;fill-opacity:1;fill-rule:nonzero;stroke:none"
         id="path52" /><path
         d="m 1312.7,171.699 h -31.97 v 16.418 h 81.81 v -16.418 h -31.97 V 87.2852 h -17.87 v 84.4138"
         style="fill:#333333;fill-opacity:1;fill-rule:nonzero;stroke:none"
         id="path54" /><path
         d="m 1378.83,188.117 h 19.16 l 24.05,-74.758 24.78,75.039 h 14.98 l 24.78,-75.039 24.05,74.758 h 18.58 l -35,-101.5545 h -15.42 l -24.76,72.4605 -24.79,-72.4605 h -15.26 l -35.15,101.5545"
         style="fill:#333333;fill-opacity:1;fill-rule:nonzero;stroke:none"
         id="path56" /><path
         d="m 1625.59,137.414 v 0.281 c 0,19.59 -14.26,35.871 -34.28,35.871 -20.02,0 -33.99,-15.988 -33.99,-35.578 v -0.293 c 0,-19.59 14.26,-35.722 34.28,-35.722 20.02,0 33.99,15.851 33.99,35.441 z m -86.86,0 v 0.281 c 0,28.379 21.9,52.153 52.87,52.153 30.97,0 52.57,-23.481 52.57,-51.86 v -0.293 c 0,-28.367 -21.89,-52.1364 -52.86,-52.1364 -30.97,0 -52.58,23.4764 -52.58,51.8554"
         style="fill:#333333;fill-opacity:1;fill-rule:nonzero;stroke:none"
         id="path58" /><path
         d="m 1709.45,138.137 c 12.67,0 20.74,6.621 20.74,16.843 v 0.293 c 0,10.801 -7.78,16.711 -20.89,16.711 h -25.78 v -33.847 z m -43.65,49.98 h 44.95 c 12.67,0 22.6,-3.738 29.09,-10.09 5.33,-5.468 8.35,-12.957 8.35,-21.746 v -0.285 c 0,-16.562 -9.93,-26.504 -23.91,-30.535 l 27.23,-38.1758 h -21.04 l -24.77,35.1488 h -22.18 V 87.2852 H 1665.8 V 188.117"
         style="fill:#333333;fill-opacity:1;fill-rule:nonzero;stroke:none"
         id="path60" /><path
         d="m 1775.73,188.117 h 17.71 v -50.703 l 47.97,50.703 h 21.89 l -42.07,-43.359 43.94,-57.4728 h -21.6 l -34.43,45.3708 -15.7,-16.133 V 87.2852 h -17.71 V 188.117"
         style="fill:#333333;fill-opacity:1;fill-rule:nonzero;stroke:none"
         id="path62" /></g></g></svg>
