<?xml version="1.0" encoding="utf-8"?>
<!-- Generator: Adobe Illustrator 23.0.2, SVG Export Plug-In . SVG Version: 6.00 Build 0)  -->
<svg version="1.1" id="Capa_1" xmlns="http://www.w3.org/2000/svg" xmlns:xlink="http://www.w3.org/1999/xlink" x="0px" y="0px"
	 viewBox="0 0 708.7 340.2" style="enable-background:new 0 0 708.7 340.2;" xml:space="preserve">
<style type="text/css">
	.st0{fill:#747474;}
	.st1{fill:#FFFFFF;}
</style>
<path class="st0" d="M634.9,281.3c15.1,0,29.1-0.2,43,0.1c4,0.1,8.3,1.3,11.7,3.2c7.1,4,9.9,12.7,7.7,20.7
	c-2.1,7.7-9.2,13.3-17.6,13.4c-16.1,0.2-32.2,0.1-48.3,0.1c-9.2,0-18.4-0.4-27.6,0.1c-14.1,0.7-22.2-9.8-21.5-21.4
	c0.4-6.2,0-12.5,0.1-18.7c0-9.7,4.2-15.7,13.2-19.5c30-12.6,50.5-34.2,60.1-65.2c17.8-57.5-15.9-117.4-74-132
	c-59.3-14.9-119.3,25.2-128,85.6c-6.9,48.2,19,93.6,63.8,111.7c8.8,3.6,13,9.7,13.1,19.1c0.1,6.9,0.1,13.8,0,20.6
	c-0.2,11.7-7.4,19.3-19.1,19.4c-25.9,0.2-51.9,0.2-77.9,0.1c-10.5,0-18.6-8.3-18.7-18.5c-0.1-10.3,8-18.8,18.7-18.9
	c13.1-0.2,26.2-0.1,39.3-0.1c1.4,0,2.8,0,5,0c-43.2-31.7-65.3-73.3-62.7-126.4c1.9-39.2,18.2-72.3,47.8-98
	C524,4.2,612,10.7,664.5,71.5C718.4,134,707,233.2,634.9,281.3z"/>
<path class="st1" d="M255.1,300.1c-0.3,8.6-6.3,16.3-14.6,18.3c-8.7,2.1-18-2.3-21.5-10.7c-4.7-11.1-9-22.3-13.4-33.5
	c-10.9-27.3-21.8-54.5-32.5-81.9c-1.1-2.7-2.5-3.3-5.2-3.3c-23.6,0.1-47.2,0.1-70.9,0c-2.6,0-3.9,0.8-4.9,3.2
	c-14.9,37.6-29.9,75.3-44.8,112.9c-4,10.1-11.6,14.8-21.4,13.4c-12-1.7-18.7-14.4-13.9-26.5c6.2-15.7,12.5-31.3,18.7-46.9
	c27.7-69.6,55.4-139.1,83-208.7c2.7-6.8,6.6-12.4,14.1-14.3c9.5-2.4,18.4,2.2,22.3,11.7c6.1,15,12,30,18,45
	c23.7,59.5,47.3,119,71,178.5c4.6,11.5,9.3,23,13.8,34.6C254,294.5,254.4,297.3,255.1,300.1z M108.6,151.2c16.2,0,31.8,0,48,0
	c-8-20-15.8-39.7-24-60.2C124.4,111.6,116.6,131.2,108.6,151.2z"/>
<path class="st0" d="M305.8,188.9c-2.1,0-3.7,0-5.2,0c-11.7,0-23.3,0.1-35-0.1c-9.4-0.2-16.6-6.1-18.5-14.9
	c-1.8-8.3,2.3-17.1,10.3-20.6c3.2-1.4,7-2,10.5-2.1c11-0.3,22-0.1,33.1-0.1c1.4,0,2.8,0,4.8,0c0-1.8,0-3.3,0-4.9
	c0-12.1-0.2-24.1,0.1-36.2c0.2-8.9,6.9-16.2,15.4-17.4c9.3-1.4,17.8,3.4,20.7,12.1c0.9,2.6,1.2,5.6,1.3,8.4
	c0.1,11.2,0.1,22.3,0.1,33.5c0,1.4,0,2.8,0,4.6c4,0,7.6,0,11.2,0c9.5,0,18.9-0.2,28.4,0.1c10.5,0.3,17.9,6.9,19.2,16.8
	c1.1,8.7-4.3,17.2-12.9,19.8c-3,0.9-6.4,0.9-9.6,1c-10.5,0.1-21,0-31.5,0c-1.4,0-2.8,0-4.7,0c0,1.7,0,3.1,0,4.4
	c0,11.8,0.1,23.6-0.1,35.4c-0.1,7.9-3.6,14-11,17.3c-7.2,3.2-14,2.2-20-2.8c-4.6-3.8-6.5-8.9-6.5-14.8c0-11.5,0-23.1,0-34.6
	C305.8,192.5,305.8,191.1,305.8,188.9z"/>
</svg>
