<?xml version="1.0" encoding="UTF-8"?>
<svg width="139px" height="40px" viewBox="0 0 139 30" version="1.1" xmlns="http://www.w3.org/2000/svg" xmlns:xlink="http://www.w3.org/1999/xlink">
    <g id="Brands" stroke="none" stroke-width="1" fill="none" fill-rule="evenodd">
        <g id="Color" transform="translate(-53.000000, -33.000000)">
            <g id="brands/logo-periscope" transform="translate(53.000000, 31.000000)">
                <path d="M35.0720115,24.6743484 L36.7643585,24.6743484 L36.7643585,18.0754968 L41.0320162,18.0754968 C44.122389,18.0754968 46.354325,16.0670839 46.354325,12.9349161 C46.354325,9.82643871 44.122389,7.86606452 41.0320162,7.86606452 L35.0720115,7.86606452 L35.0720115,24.6743484 L35.0720115,24.6743484 Z M36.7643585,16.5930968 L36.7643585,9.34824516 L40.8358021,9.34824516 C43.1167915,9.34824516 44.6129244,10.6632774 44.6129244,12.9349161 C44.6129244,15.2302452 43.1167915,16.5930968 40.8112753,16.5930968 L36.7643585,16.5930968 L36.7643585,16.5930968 Z M47.9400143,18.6732387 C47.9400143,22.3790194 50.7115391,24.9614839 54.3905543,24.9614839 C57.1620792,24.9614839 58.9525333,23.2878065 58.9525333,23.2878065 L58.1922034,22.0445032 C58.1922034,22.0445032 56.6960706,23.5029935 54.4396079,23.5029935 C51.888824,23.5029935 49.7304684,21.8293161 49.6568881,18.7449677 L59.1242206,18.7449677 C59.1242206,18.7449677 59.1732742,18.1948258 59.1732742,17.908129 C59.1732742,14.9194194 57.4318736,12.3610839 54.0226528,12.3610839 C50.6870123,12.3610839 47.9400143,14.7281419 47.9400143,18.6732387 L47.9400143,18.6732387 Z M49.7304684,17.4058065 C50.1228967,14.9911484 51.9133507,13.7239355 53.9735993,13.7239355 C55.8131069,13.7239355 57.3828201,14.8952903 57.4809272,17.4058065 L49.7304684,17.4058065 L49.7304684,17.4058065 Z M62.1367378,24.6743484 L63.8045581,24.6743484 L63.8045581,19.6054968 C63.8045581,18.8406065 63.9026652,18.0274581 64.1479328,17.2625677 C64.6875217,15.4932516 65.9874405,14.1543097 67.728841,14.1543097 C68.047689,14.1543097 68.3420102,14.202129 68.3420102,14.202129 L68.3420102,12.5999613 C68.3420102,12.5999613 68.0231622,12.5284516 67.6797875,12.5284516 C65.7421728,12.5284516 64.3686738,13.9152129 63.7800313,15.732129 L63.7309778,15.732129 C63.7309778,15.732129 63.7800313,15.3019742 63.7800313,14.7759613 L63.7800313,12.6477806 L62.1367378,12.6477806 L62.1367378,24.6743484 L62.1367378,24.6743484 Z M70.5941976,9.8983871 L72.3355982,9.8983871 L72.3355982,7.86606452 L70.5941976,7.86606452 L70.5941976,9.8983871 Z M70.6432511,24.6743484 L72.3110714,24.6743484 L72.3110714,12.6477806 L70.6432511,12.6477806 L70.6432511,24.6743484 Z M74.8778314,23.2158581 C74.8778314,23.2158581 76.4475446,24.9614839 79.4398104,24.9614839 C81.917014,24.9614839 83.6584145,23.5508129 83.6584145,21.59 C83.6584145,17.6209935 77.0116603,18.3385032 77.0116603,15.6843097 C77.0116603,14.3455871 78.2134719,13.8195742 79.4643371,13.8195742 C81.5000589,13.8195742 82.5547099,14.9194194 82.5547099,14.9194194 L83.3150397,13.6761161 C83.3150397,13.6761161 82.1132281,12.3610839 79.5133907,12.3610839 C77.2814547,12.3610839 75.2947865,13.5324387 75.2947865,15.6843097 C75.2947865,19.6054968 81.9415407,18.9601548 81.9415407,21.59 C81.9415407,22.8572129 80.7887826,23.5029935 79.4643371,23.5029935 C77.1588209,23.5029935 75.7853219,22.0445032 75.7853219,22.0445032 L74.8778314,23.2158581 L74.8778314,23.2158581 Z M85.440318,18.6732387 C85.440318,22.4031484 88.2608963,24.9614839 91.9153848,24.9614839 C95.0548112,24.9614839 96.7226314,23.0726194 96.7226314,23.0726194 L95.9623016,21.8051871 C95.9623016,21.8051871 94.5152223,23.5029935 92.0134919,23.5029935 C89.2910206,23.5029935 87.1571918,21.4943613 87.1571918,18.6732387 C87.1571918,15.8040774 89.2664938,13.8434839 91.9644384,13.8434839 C94.1963743,13.8434839 95.5698733,15.3019742 95.5698733,15.3019742 L96.4283102,14.0825806 C96.4283102,14.0825806 94.9321773,12.3610839 91.9153848,12.3610839 C88.2854231,12.3610839 85.440318,14.9672387 85.440318,18.6732387 L85.440318,18.6732387 Z M98.4064278,18.6012903 C98.4064278,22.2355613 101.325113,24.9614839 104.930548,24.9614839 C108.535983,24.9614839 111.454669,22.2355613 111.454669,18.6012903 C111.454669,15.0389677 108.535983,12.3610839 104.930548,12.3610839 C101.325113,12.3610839 98.4064278,15.0389677 98.4064278,18.6012903 L98.4064278,18.6012903 Z M100.123302,18.6012903 C100.123302,15.8758065 102.281657,13.8434839 104.930548,13.8434839 C107.579439,13.8434839 109.737795,15.8758065 109.737795,18.6012903 C109.737795,21.3989419 107.579439,23.5029935 104.930548,23.5029935 C102.281657,23.5029935 100.123302,21.3989419 100.123302,18.6012903 L100.123302,18.6012903 Z M113.894519,29.4565032 L115.56234,29.4565032 L115.56234,23.7181806 C115.56234,23.096529 115.513286,22.6661548 115.513286,22.6661548 L115.56234,22.6661548 C115.56234,22.6661548 116.641518,24.9614839 119.609256,24.9614839 C122.797736,24.9614839 125.127779,22.4748774 125.127779,18.6732387 C125.127779,14.9431097 123.067531,12.3610839 119.756417,12.3610839 C116.494357,12.3610839 115.488759,14.7518323 115.488759,14.7518323 L115.439706,14.7518323 C115.439706,14.7518323 115.488759,14.3455871 115.488759,13.8195742 L115.488759,12.6477806 L113.894519,12.6477806 L113.894519,29.4565032 L113.894519,29.4565032 Z M115.513286,18.6971484 C115.513286,15.2780645 117.450901,13.8434839 119.511149,13.8434839 C121.816666,13.8434839 123.410906,15.732129 123.410906,18.6732387 C123.410906,21.7336774 121.620451,23.5266839 119.437569,23.5266839 C116.886785,23.5266839 115.513286,21.1120258 115.513286,18.6971484 L115.513286,18.6971484 Z M127.032317,18.6732387 C127.032317,22.3790194 129.803841,24.9614839 133.482857,24.9614839 C136.254382,24.9614839 138.044836,23.2878065 138.044836,23.2878065 L137.284506,22.0445032 C137.284506,22.0445032 135.788373,23.5029935 133.53191,23.5029935 C130.981126,23.5029935 128.822771,21.8293161 128.74919,18.7449677 L138.216523,18.7449677 C138.216523,18.7449677 138.265577,18.1948258 138.265577,17.908129 C138.265577,14.9194194 136.524176,12.3610839 133.114955,12.3610839 C129.779315,12.3610839 127.032317,14.7281419 127.032317,18.6732387 L127.032317,18.6732387 Z M128.822771,17.4058065 C129.215199,14.9911484 131.005653,13.7239355 133.065902,13.7239355 C134.905409,13.7239355 136.475122,14.8952903 136.57323,17.4058065 L128.822771,17.4058065 Z M0,2.19354839 L29.4179104,2.19354839 L29.4179104,31.8064516 L0,31.8064516 L0,2.19354839 Z" id="Clip-14" fill="#3FA3C2"></path>
                <path d="M14.8979277,28.3047103 C16.7095936,28.3047103 23.8894446,20.2807931 23.8894446,14.9012398 C23.8894446,9.75179184 19.80614,5.48387097 14.8979277,5.48387097 C9.73260697,5.48387097 5.64952292,9.75179184 5.64952292,14.9012398 C5.64952292,20.2807931 12.8293738,28.3047103 14.8979277,28.3047103 L14.8979277,28.3047103 Z" id="Mask" fill="#FFFFFF"></path>
                <path d="M14.8250459,20.8058942 C17.9233052,20.8058942 20.5722417,18.1138181 20.5722417,14.9644968 C20.5722417,11.4715781 17.9233052,8.77926065 14.8250459,8.77926065 C11.3883845,8.77926065 8.73968306,11.4715781 8.73968306,14.9644968 C8.73968306,18.1138181 11.3883845,20.8058942 14.8250459,20.8058942 L14.8250459,20.8058942 Z" id="Clip-6" fill="#E65042"></path>
                <path d="M13.0505529,13.0739871 C14.1841023,13.0739871 15.1030618,12.1125548 15.1030618,10.9265032 C15.1030618,9.74023226 14.1841023,8.7788 13.0505529,8.7788 C11.9170036,8.7788 10.9980441,9.74023226 10.9980441,10.9265032 C10.9980441,12.1125548 11.9170036,13.0739871 13.0505529,13.0739871 L13.0505529,13.0739871 Z" id="Clip-11" fill="#FFFFFF"></path>
            </g>
        </g>
    </g>
</svg>