<?xml version="1.0" encoding="UTF-8"?>
<svg width="150px" height="40px" viewBox="0 0 150 20" version="1.1" xmlns="http://www.w3.org/2000/svg" xmlns:xlink="http://www.w3.org/1999/xlink">
    <g id="Brands" stroke="none" stroke-width="1" fill="none" fill-rule="evenodd">
        <g id="Color" transform="translate(-298.000000, -374.000000)" fill="#000000">
            <g id="brands/logo-genius" transform="translate(298.000000, 374.000000)">
                <path d="M16.8473396,5.63497472 C16.8473396,5.63497472 16.3112438,5.60939915 14.2597047,5.60939921 C12.5425482,4.01325538 11.0476064,3.85096683 9.8915243,3.85096676 C8.73544222,3.85096669 7.29187137,4.46257006 7.52374758,4.0916091 C7.75515251,3.32399523 9.43908295,1.25888908 12.5170983,1.25888916 C15.5951137,1.25888923 16.8473396,3.26519668 16.8473396,3.26519668 L16.8473396,5.63497472 Z M16.8005638,10.2010166 C16.8005638,10.2010166 16.8676055,11.6176673 16.8676052,12.1194121 C16.456166,12.5329216 14.5035988,13.3734254 14.0189917,13.3734257 C14.0189918,13.0691936 14.0043816,12.4114378 14.0043816,12.4114378 C14.0043816,12.4114378 13.8858516,12.4114378 12.1328766,12.4114379 C10.3799016,12.411438 9.84521969,11.0798841 9.84521973,10.1523068 C9.84521977,9.22472957 10.7068614,7.69705813 12.1562056,7.95165068 C12.1562056,9.97281323 14.2728081,10.2010166 14.2728081,10.2010166 L16.8005638,10.2010166 Z M16.7387066,16.853206 C16.7387066,16.853206 15.6086628,19.8189188 9.68604047,19.8189186 C3.76341817,19.8189184 0.0619990429,14.4431795 0.0619990429,9.93572879 C0.0619990429,5.42827811 3.04485939,3.34204545 3.04485939,3.34204545 C3.04485939,3.34204545 2.37298488,5.58082392 2.37298492,7.16450631 C2.37298492,15.4832888 10.3480894,17.5294456 12.6834648,17.5294457 C15.0188402,17.5294457 16.7387066,16.853206 16.7387066,16.853206 Z M37.2639938,4.30086325 L37.2639938,1.90943706 L45.3833191,1.90943706 C45.383319,2.97860949 44.9838933,4.32295127 43.647895,4.32295119 C42.3118966,4.32295111 37.2639938,4.30086325 37.2639938,4.30086325 Z M37.2639938,11.9372269 L37.2639938,9.5458007 L45.0147687,9.5458007 C45.0147686,10.6149731 44.615343,11.9593149 43.2793446,11.9593148 C41.9433462,11.9593147 37.2639938,11.9372269 37.2639938,11.9372269 Z M45.3447859,17.354951 C45.3447859,17.354951 45.6664569,19.581623 43.6100802,19.7275443 C43.1965196,19.7275442 35.4013256,19.7275442 32.9504834,19.7275443 C30.4996412,19.7275444 30.6628266,17.3747776 30.6628266,17.3747776 L30.6628266,2.6169486 C30.6628266,0.107410201 33.5563307,0.232864191 33.5563307,0.232864191 C33.5563307,0.232864191 33.5563308,13.3626144 33.5563307,15.3539 C33.5563307,17.3451857 35.6134228,17.354951 35.6134228,17.354951 L45.3447859,17.354951 Z M62.1320495,0.313565341 C62.1320495,0.313565341 62.0161576,14.3419747 62.0161577,15.7336648 C62.0161578,17.1253548 63.6750874,17.3262576 63.6750874,17.3262576 C63.6750874,17.3262576 63.4282741,19.7162645 61.2527833,19.7162642 C59.0772925,19.7162639 59.1370379,17.3356512 59.1370379,17.3356512 L59.1370379,2.31338778 C59.1370379,-0.115944429 62.1320495,0.313565341 62.1320495,0.313565341 Z M92.9060053,0.313565341 C92.9060053,0.313565341 92.7901133,14.3419747 92.7901134,15.7336648 C92.7901136,17.1253548 94.4490431,17.3262576 94.4490431,17.3262576 C94.4490431,17.3262576 94.2022299,19.7162645 92.0267391,19.7162642 C89.8512483,19.7162639 89.9109936,17.3356512 89.9109936,17.3356512 L89.9109936,2.31338778 C89.9109936,-0.115944429 92.9060053,0.313565341 92.9060053,0.313565341 Z M110.596423,0.131747159 C110.596423,0.131747159 110.596423,8.98242245 110.596423,10.3741125 C110.596423,13.5901992 113.622027,17.3714492 117.446457,17.3714492 C121.270887,17.3714492 122.32705,16.5674719 122.32705,16.5674719 C122.69794,16.8629264 120.482859,19.77255 116.412968,19.77255 C107.785687,19.77255 107.785687,11.875533 107.785687,11.875533 C107.785687,11.875533 107.785687,4.56090182 107.785687,2.1315696 C107.785687,-0.297762611 110.596423,0.131747159 110.596423,0.131747159 Z M71.8208932,7.29279119 C71.8208932,7.29279119 71.8860373,3.68856544 71.8860373,1.92151989 C71.8860373,0.154474328 74.6722997,0.231689141 74.6722997,0.231689141 L74.6722997,11.7910156 L71.8208932,7.29279119 Z M65.6892444,4.07262074 C65.6892444,4.07262074 72.2380317,14.8590199 73.2743997,16.3808594 C74.3107676,17.9026989 76.0988128,16.8746449 76.0988128,17.4067827 C76.0988128,17.9389205 75.2449204,19.815696 73.1140587,19.815696 C70.9831969,19.815696 70.369906,18.4545455 70.369906,18.4545455 L65.6892444,10.9403358 L65.6892444,4.07262074 Z M122.598604,0.191051136 C122.598604,0.191051136 122.620738,6.25195302 122.620739,9.9399858 C122.620739,13.6280186 118.66926,14.6271313 119.249978,13.8810369 C119.830697,13.1349426 119.69555,10.8728306 119.69555,10.8728306 C119.69555,10.8728306 119.69555,4.5466973 119.69555,2.15571733 C119.69555,-0.235262636 122.598604,0.191051136 122.598604,0.191051136 Z M139.333994,0.594637784 C139.333994,0.594637784 138.434933,1.67134233 138.434933,3.75514915 C138.434933,5.83895597 139.734397,7.95880682 142.10442,8.7253196 C144.474444,9.49183239 149.244004,9.32972301 149.244004,11.6631747 C149.244004,12.970348 147.337188,14.2627841 146.315576,13.8590199 C146.315576,12.0095881 143.50142,12.1624645 140.777963,11.4634233 C138.054505,10.7643821 135.508844,9.23615057 135.508844,5.5834517 C135.508844,1.93075284 139.333994,0.594637784 139.333994,0.594637784 Z M142.043415,3.79296875 C142.043415,3.79296875 141.556633,1.3503196 145.178433,1.3503196 C147.669927,1.3503196 149.068547,2.81551847 149.970127,3.18643466 C149.970127,4.67382813 148.774678,5.57049008 147.669927,5.57049006 C146.565175,5.57049004 146.358586,4.94034093 145.074238,4.23259943 C143.78989,3.52485794 142.043415,3.79296875 142.043415,3.79296875 Z M137.964887,13.5014205 C137.964887,15.2757458 141.380276,17.3703834 145.261752,17.3703835 C149.143228,17.3703837 149.869172,15.973189 149.869172,16.5209517 C149.391028,18.1079545 146.442085,19.7372161 142.821726,19.7372159 C139.201366,19.7372157 135.022962,18.0083453 135.022962,15.7036577 C135.022962,13.39897 137.964887,13.5014205 137.964887,13.5014205 Z" id="Combined-Shape"></path>
            </g>
        </g>
    </g>
</svg>