<?xml version="1.0" encoding="UTF-8"?>
<svg width="131px" height="40px" viewBox="0 0 131 32" version="1.1" xmlns="http://www.w3.org/2000/svg" xmlns:xlink="http://www.w3.org/1999/xlink">
    <g id="Brands" stroke="none" stroke-width="1" fill="none" fill-rule="evenodd">
        <g id="Color" transform="translate(-61.000000, -936.000000)">
            <g id="brands/logo-medium" transform="translate(61.000000, 936.000000)">
                <path d="M127.889284,23.9210714 C127.889284,24.0553618 127.969584,24.1359005 128.103388,24.1359005 L130.351613,24.1359005 C130.485417,24.1359005 130.565717,24.0553618 130.565717,23.9210714 L130.565717,16.8342917 C130.565717,15.4652234 130.351613,14.6061739 130.003705,13.9082908 C129.254297,12.4855597 127.808983,11.8681262 126.04247,11.8681262 C124.436645,11.8681262 122.964625,12.4318079 121.813716,13.5592602 C120.957211,12.4318079 119.699294,11.8681262 118.17377,11.8681262 C116.728456,11.8681262 115.577547,12.2439437 114.480231,13.0492414 L112.633506,12.1097422 C112.312306,11.9486649 112.098202,12.1097422 112.098202,12.405021 L112.098202,23.9210714 C112.098202,24.0553618 112.178502,24.1359005 112.312306,24.1359005 L114.560531,24.1359005 C114.694335,24.1359005 114.774635,24.0553618 114.774635,23.9210714 L114.774635,16.512137 C114.774635,15.8141649 114.828139,15.4920992 115.176136,15.1162818 C115.764944,14.4719725 116.648156,14.1230309 117.558165,14.1230309 C119.056982,14.1230309 119.993698,14.9819914 119.993698,16.5657998 L119.993698,23.9210714 C119.993698,24.0553618 120.073998,24.1359005 120.207802,24.1359005 L122.456028,24.1359005 C122.58992,24.1359005 122.67022,24.0553618 122.67022,23.9210714 L122.67022,16.512137 C122.67022,15.8141649 122.723724,15.4920992 123.071632,15.1162818 C123.66044,14.4719725 124.543742,14.1230309 125.453662,14.1230309 C126.44397,14.1230309 127.193379,14.4988484 127.594879,15.2236074 C127.782187,15.5994248 127.889284,16.0826568 127.889284,16.753753 L127.889284,23.9210714 L127.889284,23.9210714 Z M92.1585766,8.40523056 C92.1585766,9.23740412 92.8544813,9.90850035 93.7376937,9.90850035 C94.6209061,9.90850035 95.3168108,9.23740412 95.3168108,8.40523056 C95.3168108,7.57305701 94.6209061,6.90196078 93.7376937,6.90196078 C92.8544813,6.90196078 92.1585766,7.57305701 92.1585766,8.40523056 L92.1585766,8.40523056 Z M67.0533924,16.512137 C67.321089,14.9819914 68.4452017,13.9888295 70.1581228,13.9888295 C71.8710438,13.9888295 72.9148564,15.1699446 72.9148564,16.5657998 C72.9148564,16.6195516 72.8880601,16.6463385 72.8345563,16.6463385 L67.1336925,16.6463385 C67.0266849,16.6463385 67.0533924,16.5390129 67.0533924,16.512137 L67.0533924,16.512137 Z M92.3994769,23.9210714 C92.3994769,24.0553618 92.479777,24.1359005 92.613581,24.1359005 L94.8618064,24.1359005 C94.9956104,24.1359005 95.0759105,24.0553618 95.0759105,23.9210714 L95.0759105,12.2439437 C95.0759105,12.1097422 94.9956104,12.0292036 94.8618064,12.0292036 L92.613581,12.0292036 C92.479777,12.0292036 92.3994769,12.1097422 92.3994769,12.2439437 L92.3994769,23.9210714 L92.3994769,23.9210714 Z M80.4089412,18.0154068 C80.4089412,15.4383475 81.8274581,14.096155 83.6206792,14.096155 C84.5306879,14.096155 85.3603965,14.3108951 86.0563011,14.9283286 C86.538013,15.3578088 86.5915168,15.7336262 86.5915168,16.6463385 L86.5915168,19.6797539 C86.5915168,20.3508501 86.5648093,20.6461289 86.1365125,21.0756091 C85.3068926,21.8809958 84.4235915,22.0957359 83.6206792,22.0957359 C82.2021623,22.0957359 80.4089412,21.1830237 80.4089412,18.0154068 L80.4089412,18.0154068 Z M103.1856,22.0957359 C102.061487,22.0957359 101.285282,21.6661667 100.937374,20.8877449 C100.776774,20.5387144 100.696474,20.0823583 100.696474,19.3844751 L100.696474,12.2439437 C100.696474,12.1097422 100.616174,12.0292036 100.48237,12.0292036 L98.2341446,12.0292036 C98.1003407,12.0292036 98.0200406,12.1097422 98.0200406,12.2439437 L98.0200406,19.4918007 C98.0200406,20.619253 98.1806408,21.3708879 98.4482486,21.9883214 C99.1708608,23.5721298 100.72327,24.3237647 102.757392,24.3237647 C104.282916,24.3237647 105.433825,23.9479473 106.584646,23.1426496 L108.431459,24.0821487 C108.752571,24.243226 108.966764,24.0821487 108.966764,23.7868699 L108.966764,12.2439437 C108.966764,12.1097422 108.886464,12.0292036 108.752571,12.0292036 L106.504345,12.0292036 C106.370542,12.0292036 106.290241,12.1097422 106.290241,12.2439437 L106.290241,19.6797539 C106.290241,20.3508501 106.263534,20.6461289 105.835237,21.0756091 C105.005529,21.8809958 104.122316,22.0957359 103.1856,22.0957359 L103.1856,22.0957359 Z M64.2966588,18.0154068 C64.2966588,22.4983403 67.2942927,24.3237647 70.2919267,24.3237647 C72.031644,24.3237647 73.6642649,23.8405327 75.0559854,22.793619 C75.1898781,22.6862935 75.2165856,22.6057548 75.1362855,22.4446775 L74.4136733,21.0756091 C74.3333732,20.9145318 74.2263656,20.9145318 74.0924729,20.9950705 C72.8078487,21.7467054 71.7372398,22.0957359 70.4525269,22.0957359 C68.9269136,22.0957359 67.1872851,21.3172251 66.9463848,18.7939176 C66.9463848,18.7670417 66.9463848,18.7133789 67.0266849,18.7133789 L75.4039821,18.7133789 C75.67159,18.7133789 75.6448824,18.2570228 75.6448824,17.8543295 C75.6448824,13.5324734 73.0754566,11.8681262 70.2116266,11.8681262 C66.8660847,11.8681262 64.2966588,14.096155 64.2966588,18.0154068 L64.2966588,18.0154068 Z M89.2680391,7.17036368 C89.2680391,7.03616223 89.187739,6.95562356 89.053935,6.95562356 L86.8057096,6.95562356 C86.6718169,6.95562356 86.5915168,7.03616223 86.5915168,7.17036368 L86.5915168,12.4586838 C86.5915168,12.5392225 86.5648093,12.5660983 86.4845092,12.5392225 C85.4942004,12.1097422 84.5574841,11.8681262 83.4868752,11.8681262 C80.1680409,11.8681262 77.7057114,14.1230309 77.7057114,17.9885309 C77.7057114,22.3372629 80.3018448,24.3237647 83.2727712,24.3237647 C84.6644918,24.3237647 85.7618082,23.9479473 86.8860097,23.1426496 L88.7327346,24.0821487 C89.053935,24.243226 89.2680391,24.0821487 89.2680391,23.7868699 L89.2680391,7.17036368 L89.2680391,7.17036368 Z M54.0190441,20.9950705 C54.1796443,20.9950705 54.2599444,20.9414077 54.3402445,20.8072063 L57.953483,14.0424922 C58.381691,13.2371946 58.8098991,12.3512692 59.0240919,11.921789 C59.0507994,11.8412504 59.1310995,11.8681262 59.1310995,11.921789 L59.1310995,23.9210714 C59.1310995,24.0553618 59.2113996,24.1359005 59.3452036,24.1359005 L61.593429,24.1359005 C61.7273217,24.1359005 61.807533,24.0553618 61.807533,23.9210714 L61.807533,7.78779712 C61.807533,7.65359567 61.7273217,7.57305701 61.593429,7.57305701 L58.6493876,7.57305701 C58.4619912,7.57305701 58.3549835,7.65359567 58.2746834,7.78779712 L53.590836,16.995369 C53.5640397,17.0490318 53.5373322,17.0490318 53.5105359,16.995369 L48.8267772,7.78779712 C48.7464771,7.65359567 48.6393808,7.57305701 48.452073,7.57305701 L45.5079429,7.57305701 C45.374139,7.57305701 45.2938389,7.65359567 45.2938389,7.78779712 L45.2938389,23.9210714 C45.2938389,24.0553618 45.374139,24.1359005 45.5079429,24.1359005 L47.7561683,24.1359005 C47.8899723,24.1359005 47.9702724,24.0553618 47.9702724,23.9210714 L47.9702724,11.921789 C47.9702724,11.8681262 48.0505725,11.8412504 48.0773688,11.921789 C48.2914728,12.3512692 48.7196809,13.2371946 49.1478889,14.0424922 L52.7611274,20.8072063 C52.8414275,20.9414077 52.9217276,20.9950705 53.0823278,20.9950705 L54.0190441,20.9950705 L54.0190441,20.9950705 Z" id="Fill-1" fill="#1A1918"></path>
                <g id="Group-2">
                    <path d="M24.7736392,0.154429351 C24.5875305,0.0609356175 24.43534,0.155442833 24.43534,0.364473537 L24.43534,26.0709429 L35.6386798,31.6990629 C36.1968798,31.9795441 36.6535775,31.6958958 36.6535775,31.0688037 L36.6535775,6.32362221 C36.6535775,6.20035743 36.584228,6.08760754 36.4745298,6.03249944 L24.7736392,0.154429351" id="Fill-6" fill="#32FC8D"></path>
                    <path d="M12.2183635,19.9411491 L24.2383876,0.316333133 C24.3474554,0.138340321 24.5889175,0.0691701604 24.7750262,0.162663894 L36.3858886,5.99550734 C36.5305137,6.06809801 36.5820845,6.24976469 36.4973521,6.38810501 L24.4366009,26.0791774 L12.2183635,19.9411491" id="Fill-7" fill="#0BE370"></path>
                    <path d="M1.3533229,0.672445442 C0.609014218,0.298597194 0.356834418,0.575277836 0.792979382,1.28737577 L12.2183635,19.9411491 L24.4366009,26.0791774 L12.2972958,6.25964614 C12.245725,6.17527375 12.1715842,6.10724376 12.0835734,6.06290391 L1.3533229,0.672445442" id="Fill-9" fill="#14C767"></path>
                    <path d="M12.2183635,31.0770382 C12.2183635,31.7041303 11.7615398,31.9877787 11.2033398,31.7072975 L0.676724494,26.419074 C0.304507109,26.2320865 0,25.7371272 0,25.3190658 L0,0.752763906 C0,0.334702498 0.304507109,0.145561381 0.676724494,0.332548848 L12.0676861,6.05504942 C12.1599839,6.10141623 12.2183635,6.19617682 12.2183635,6.29993206 L12.2183635,31.0770382" id="Fill-10" fill="#00AB6C"></path>
                </g>
            </g>
        </g>
    </g>
</svg>