<?xml version="1.0" encoding="UTF-8"?>
<svg width="133px" height="40px" viewBox="0 0 133 23" version="1.1" xmlns="http://www.w3.org/2000/svg" xmlns:xlink="http://www.w3.org/1999/xlink">
    <g id="Brands" stroke="none" stroke-width="1" fill="none" fill-rule="evenodd">
        <g id="Color" transform="translate(-60.000000, -489.000000)">
            <g id="brands/logo-livestream" transform="translate(60.000000, 489.000000)">
                <path d="M22.5342808,19.4207544 C20.7749322,16.8842983 20.6823349,12.9160884 19.8146465,9.96842855 C16.8865508,0.0202804594 9.61225751,0.151287565 0.0303173892,0 C4.11164903,1.74948101 5.87311284,8.15041358 7.66677419,11.7787509 C11.6510432,19.8382521 12.9067471,19.4233186 22.5544924,19.4233186 L22.5342808,19.4207544" id="Clip-3" fill="#FC1621"></path>
                <path d="M30.3108087,19.4384706 C25.0579097,19.5116668 33.0215123,3.52367154 23.5321695,4.00667282 C28.2637974,7.73058476 20.9561315,23.8976075 30.4593404,22.2705086 L30.4593404,19.4254165 L30.3108087,19.4384706" id="Fill-1" fill="#000000"></path>
                <path d="M31.8128121,4.00643971 L35.0699337,4.00643971 L35.0699337,6.90398121 L31.8128121,6.90398121 L31.8128121,4.00643971 Z M31.8128121,9.13506484 L35.0960208,9.13506484 L35.0960208,22.2126976 L31.8128121,22.2126976 L31.8128121,9.13506484 Z" id="Fill-12" fill="#000000"></path>
                <path d="M35.7162347,9.13506484 L39.1804077,9.13506484 C39.4234168,9.85350595 42.1569172,19.2123552 42.3860603,19.2123552 L42.4377644,19.2123552 C42.6666724,19.2123552 45.4001728,9.85350595 45.643182,9.13506484 L49.107355,9.13506484 L44.3764322,22.2126976 L40.4986266,22.2126976 L35.7162347,9.13506484" id="Fill-13" fill="#000000"></path>
                <path d="M55.1903394,8.82712821 C59.3452318,8.82712821 61.4930661,12.5011549 60.9553437,16.2891717 L51.8554265,16.2891717 C52.2234656,20.3506251 57.0662572,20.3648447 59.6110377,18.3148866 L60.8777876,20.6483049 C56.2867008,24.4335245 48.4946617,22.0914811 48.4946617,15.6737647 C48.4948967,11.6477438 51.2608297,8.82712821 55.1903394,8.82712821 L55.1903394,8.82712821 Z M57.723839,14.0583212 C57.6138504,10.2964125 52.5644774,10.7547043 51.9588347,14.0583212 L57.723839,14.0583212 L57.723839,14.0583212 Z" id="Fill-14" fill="#000000"></path>
                <path d="M62.6223301,19.3918489 C66.6075391,23.1495616 71.9713668,19.051277 65.0265695,16.0141034 C58.2274837,13.0405685 65.5812132,6.12096899 70.5586705,10.4171629 L69.7574923,11.7505448 C65.8312729,8.33596812 61.5793179,12.6727229 67.9993188,15.4488148 C75.069616,18.5062688 66.9751081,25.6270412 61.6658047,20.6483049 L62.6223301,19.3918489" id="Fill-15" fill="#000000"></path>
                <path d="M73.4670247,10.9297689 L71.7607902,10.9297689 L71.7607902,9.46817722 L73.4928767,9.46817722 L73.4928767,5.750093 L75.2249632,5.750093 L75.2249632,9.46817722 L78.4820849,9.46817722 L78.4820849,10.9297689 L75.2249632,10.9297689 L75.2249632,17.340259 C75.2249632,19.4517578 76.5469424,21.0646371 78.7408403,20.6993557 L78.7408403,22.2635153 C75.6148589,22.7138814 73.4670247,20.6187001 73.4670247,17.5197527 L73.4670247,10.9297689" id="Fill-16" fill="#000000"></path>
                <path d="M80.1648175,9.31455857 L81.896904,9.31455857 C81.9197008,10.4176291 81.9025445,11.5209327 81.8451999,12.6223714 L81.896904,12.6223714 C82.5786927,10.4819671 84.3577829,8.91337844 86.705383,9.26327464 L86.705383,10.981286 C84.484693,10.7022548 82.8882121,12.2498637 82.2846846,14.2634569 C81.5196993,16.6894194 81.9227561,19.7121403 81.9227561,22.2124645 L80.1648175,22.2124645 L80.1648175,9.31455857" id="Fill-17" fill="#000000"></path>
                <path d="M93.2196263,9.00662194 C96.997079,9.00662194 99.0060173,12.4081445 98.5968501,15.8530253 L88.6179637,15.8530253 C88.7298325,20.622663 94.1599354,22.4833368 97.6144727,19.3918489 L98.4158858,20.7252308 C93.9608747,24.4808455 86.808086,21.8297 86.808086,15.7760994 C86.8083211,11.545176 89.7037492,9.00662194 93.2196263,9.00662194 L93.2196263,9.00662194 Z M96.8649986,14.4173086 C96.6581823,9.03366255 89.4713159,9.5583903 88.6957548,14.4173086 L96.8649986,14.4173086 L96.8649986,14.4173086 Z" id="Fill-18" fill="#000000"></path>
                <path d="M107.562102,14.2378149 L108.285959,14.2378149 L108.285959,13.9044694 C108.285959,9.95071228 103.918609,9.95490824 101.383465,11.8018287 L100.556199,10.4684468 C104.223428,7.83245327 110.043897,8.70031707 110.043897,13.9557533 L110.043897,22.2126976 L108.363515,22.2126976 C108.347298,21.3828305 108.364455,20.5538959 108.415219,19.7254275 L108.363515,19.7254275 C106.663391,23.4509712 99.5996741,23.5731201 99.5996741,18.699516 C99.5996741,14.3403827 105.312974,14.2378149 107.562102,14.2378149 L107.562102,14.2378149 Z M104.304745,21.0329343 C106.78654,21.0329343 108.285724,18.4687383 108.285724,16.2378878 L108.285724,15.6737647 L107.53625,15.6737647 C105.904281,15.6737647 103.974309,15.6642072 102.543986,16.5740306 C100.162778,18.0887711 101.873478,21.0329343 104.304745,21.0329343 L104.304745,21.0329343 Z" id="Fill-19" fill="#000000"></path>
                <path d="M112.80184,9.31455857 L114.533926,9.31455857 C114.554373,10.2980443 114.537216,11.28153 114.482222,12.263384 L114.533926,12.263384 C115.941687,8.3086944 122.438774,7.66461499 123.27215,12.237742 L123.323854,12.237742 C125.455237,6.91330556 132.424006,8.60194518 132.424006,14.0070373 L132.424006,22.2126976 L130.666067,22.2126976 L130.666067,14.4429506 C130.666067,9.36327829 124.900123,9.74697526 123.737721,14.2378149 C122.977436,16.6075982 123.505053,19.7722823 123.505053,22.2126976 L121.747349,22.2126976 L121.747349,14.4429506 C121.747349,9.10872356 115.944272,10.0169152 114.741447,14.3916667 C114.153901,16.8390752 114.560483,19.7237957 114.560483,22.2126976 L112.802545,22.2126976 L112.802545,9.31455857 L112.80184,9.31455857" id="Fill-20" fill="#000000"></path>
            </g>
        </g>
    </g>
</svg>